<?xml version="1.0" encoding="UTF-8"?>
<!DOCTYPE svg PUBLIC "-//W3C//DTD SVG 1.1//EN" "http://www.w3.org/Graphics/SVG/1.1/DTD/svg11.dtd">
<!-- Creator: CorelDRAW 2020 (64 Bit) -->
<svg xmlns="http://www.w3.org/2000/svg" xml:space="preserve" width="105.833mm" height="105.833mm" version="1.1" style="shape-rendering:geometricPrecision; text-rendering:geometricPrecision; image-rendering:optimizeQuality; fill-rule:evenodd; clip-rule:evenodd"
viewBox="0 0 10583.32 10583.32"
 xmlns:xlink="http://www.w3.org/1999/xlink"
 xmlns:xodm="http://www.corel.com/coreldraw/odm/2003">
 <defs>
  <style type="text/css">
   <![CDATA[
    .fil0 {fill:#373435}
   ]]>
  </style>
 </defs>
 <g id="Camada_x0020_1">
  <metadata id="CorelCorpID_0Corel-Layer"/>
  <g id="_2961984394432">
   <path class="fil0" d="M3579.97 6066.14l-0.2 2430.43c-0.87,100.95 -1.09,213.45 160.44,213.45 182.94,0 133.53,-320.69 133.53,-547.47l0 -2069.71c293.69,-68.42 569.3,-16.01 824.61,-270.33l289.32 -258.15c106.1,-81.96 193.76,-187.21 301.48,-259.34 0,87.7 -11.78,3248.01 5.21,3306.32 18.56,63.74 73.13,95.91 129.9,98.68l15.65 0c72.24,-3.32 143,-53.72 143,-146.88l0 -3244.77c0,-133.84 -60.83,-227.63 -150.62,-276.67 -213.83,-116.77 -349.16,45.73 -493.5,180.02l-293.81 253.66c-73.61,65.03 -145.69,144.12 -228.71,198.59 -127.69,83.77 -654.88,147.44 -715.13,124.74 -104.53,-39.38 -160.02,-176.72 -78.28,-277.2 42.58,-52.34 200.55,-117.89 273.13,-154.18 239.52,-119.75 705.04,-318.54 830.82,-477.77 64.53,-81.7 117.78,-165.75 175.05,-252.24 67.33,-101.67 117.71,-151.93 203.41,-237.24 276.35,-275.06 658.77,-243.41 998.41,-243.41 194.06,0 307.99,131.72 408.44,259.2 101.71,129.06 176.53,274.73 242.16,438.84 139.62,349.15 188.49,744.27 218.13,1130.52 39.94,520.56 39.24,765.86 -174.98,1121.84 -179.37,298.07 -373.28,528.72 -373.28,988.71l0 480.71c0,77.02 65.96,127.41 135.66,133.53l28.5 0c46.78,-4.2 91.43,-29.52 115.03,-81.33 77,-169.06 -133.82,-654.75 252.22,-1229.97 124.91,-186.12 207.86,-317.19 277.59,-563.64 33.8,-119.47 42.1,-228.63 57.08,-357.04l-13.44 -409.96c-69.49,-619.14 -112.51,-1266.85 -511.17,-1798.88 -35.52,-47.42 -60.61,-73.64 -95.42,-118.23 -254.66,-326.13 -559.33,-288.07 -913.7,-288.07 -579.13,0 -895.62,308.51 -1156.35,699.71 -127.99,192.03 -122.42,186.71 -334.73,292.86 -164.96,82.48 -709.04,337.48 -815.13,426.69 -175.49,147.56 -219.78,429.2 -51.88,645.07 47.97,61.66 113.7,103 181.56,138.91z"/>
   <path class="fil0" d="M5622.97 3288.72c-189.98,0 -320.5,-27.58 -457.83,-169.75 -356.4,-368.98 -51.3,-951.89 364.36,-951.89 189.98,0 320.51,27.58 457.83,169.75 352.65,365.09 54.05,951.89 -364.36,951.89zm-908 -560.82c0,462.33 398,854.59 801.18,854.59 303.32,0 403.23,-40.96 627.72,-213.52 172.64,-132.71 293.63,-418.04 293.63,-641.07 0,-462.95 -405.37,-854.59 -801.18,-854.59 -286.35,0 -494.33,63.97 -684.67,263.39 -121.4,127.2 -236.68,347.45 -236.68,591.2z"/>
  </g>
 </g>
</svg>
