<?xml version="1.0" encoding="UTF-8"?>
<!DOCTYPE svg PUBLIC "-//W3C//DTD SVG 1.1//EN" "http://www.w3.org/Graphics/SVG/1.1/DTD/svg11.dtd">
<!-- Creator: CorelDRAW 2020 (64 Bit) -->
<svg xmlns="http://www.w3.org/2000/svg" xml:space="preserve" width="105.833mm" height="105.833mm" version="1.1" style="shape-rendering:geometricPrecision; text-rendering:geometricPrecision; image-rendering:optimizeQuality; fill-rule:evenodd; clip-rule:evenodd"
viewBox="0 0 10583.32 10583.32"
 xmlns:xlink="http://www.w3.org/1999/xlink"
 xmlns:xodm="http://www.corel.com/coreldraw/odm/2003">
 <defs>
  <style type="text/css">
   <![CDATA[
    .fil0 {fill:#373435}
   ]]>
  </style>
 </defs>
 <g id="Camada_x0020_1">
  <metadata id="CorelCorpID_0Corel-Layer"/>
  <g id="_2961986893536">
   <path class="fil0" d="M2220.54 4438.57l0 -1644.14c0,-137.28 106.95,-272.7 194.63,-332.73 61.98,-42.43 110.46,-50.05 187.48,-76.2 75.58,-25.67 129.19,-48.6 205.32,-73.88l1807.13 -612.54c411.47,-135.9 661.98,-209.38 1133.2,-74.77 307.35,87.79 890.12,303.3 1216.55,412.07 72.51,24.17 1110.08,364.89 1194.01,419.1 90.54,58.47 203.92,196.47 203.92,338.95l0 1644.14c0,641.27 -195.88,1454.09 -424.07,1964.58 -54.39,121.68 -97.05,209.95 -154.99,325.83 -147.35,294.7 -351.17,615.92 -555.25,871.74 -152.45,191.08 -387.22,471 -574.17,620.16 -49.24,39.28 -75.31,78.69 -128.31,119.86 -267.44,207.73 -527.88,438.83 -846.29,596.21 -52.16,25.78 -106.75,46.2 -170.21,62.45 -465.65,119.24 -829.52,-176.41 -1177.26,-437.21 -48.42,-36.33 -84.38,-61.3 -130.32,-102.34 -42.43,-37.92 -93.69,-80.25 -135.63,-112.55l-368.65 -344.84c-47.7,-48.21 -65.3,-82.71 -115.96,-132.21 -101.71,-99.39 -350.37,-425.87 -424.37,-537.29 -306.38,-461.31 -454.99,-758.45 -640.19,-1267.63 -154.13,-423.76 -296.57,-1055.94 -296.57,-1626.76zm-248.17 -1597.6l0 1442.49c0,1380.82 547.12,2727.4 1290.84,3579.53 26.55,30.42 28.31,39.2 54.96,69.11 28.88,32.4 39.59,39.87 65.67,73.94 162.71,212.5 568,553.76 794.55,741.01 49.89,41.23 89.33,65.02 142.76,105.42 221.97,167.8 579.26,409.93 892.96,409.93 416.66,0 546.78,-69.33 884.11,-294.7 51.81,-34.6 92.96,-61.61 146.25,-101.92 345.25,-261.06 403.53,-300.51 702.96,-599.94 87.63,-87.62 178.67,-163.96 252.05,-259.8l232.83 -279.03c677.48,-885.6 1178.65,-2041.5 1178.65,-3474.57l0 -1380.45c0,-617.57 -511.9,-706.94 -936.56,-847.18l-1341.72 -457.53c-503.98,-168.41 -549.19,-246.36 -1134.08,-246.36 -335.16,0 -667.91,152.76 -936.5,242.32 -307.27,102.45 -587.91,201.26 -891.79,302.53 -290.42,96.77 -579.42,197.19 -880.5,298.32 -300.56,100.96 -517.44,347.46 -517.44,676.88z"/>
   <path class="fil0" d="M2592.8 3058.11l0 1209.84c0,1540.82 629.3,2752.25 1593.41,3680.23 43.93,42.29 71.12,55.39 116.57,100.59 40.61,40.38 72.92,61.78 116.8,100.35l256.01 193.79c538.45,403.73 693.57,398.2 1223.34,6.71 337.67,-249.52 404.03,-308.13 707.26,-611.14 40.08,-40.06 70.18,-64.98 105.92,-111.25 42.44,-54.95 68.53,-72.59 108.58,-124.07 143.95,-185.02 240.04,-296.53 375.82,-508.3 439.84,-686.01 794.02,-1605.23 794.02,-2726.91l0 -1209.84c0,-113.47 -44.26,-208.9 -103.88,-268.38 -113.41,-113.13 -783.58,-305.51 -811.25,-305.51 -69.71,0 -237.06,168.78 48.28,261.93 77.64,25.34 140.77,46.66 221.25,73.45 83.38,27.75 137.31,50.81 216.96,77.74 64.76,21.9 180.46,40.28 180.46,114.25l0 1426.98c0,466.02 -118.67,999.93 -238.45,1359.15 -239.24,717.48 -458.8,1018.62 -862.78,1541.38 -107.64,139.29 -267.59,289.65 -391.53,415.02l-215.59 187.7c-41.35,33.38 -64.07,56.08 -110.78,90.85 -43.41,32.3 -71.94,53.87 -115.18,86.46 -107,80.65 -385.06,286.71 -516.38,286.82 -121.49,0.09 -396.14,-196.71 -507.59,-280.09 -280.87,-210.09 -398.43,-320.51 -644.08,-565.76 -768.43,-767.17 -1299.02,-2040.15 -1299.02,-3121.53l0 -1426.98c0,-82.41 190.08,-117.42 261.88,-141.41l1535.39 -527.53c829.05,-276.23 732.06,-186.94 1616.89,108.75 231.49,77.35 432.5,189.68 432.5,-44.73 0,-108.27 -523.18,-244.16 -622.41,-277.22 -473.79,-157.88 -710.01,-279.3 -1221.39,-108.58 -114.22,38.13 -226.97,75.55 -349.07,116.26 -154.12,51.39 -1661.07,554.47 -1738.35,603.77 -97.73,62.34 -163.61,164.95 -163.61,317.21z"/>
   <path class="fil0" d="M3569.97 4981.44c0,266.4 72.38,514.4 154.45,698.65 375.83,843.74 1381.52,1254.29 2223.21,887.97 360.03,-156.7 646.29,-392.92 838.43,-743.67 92.69,-169.21 196.27,-393.66 196.27,-594.78 0,-72.56 -79.51,-93.06 -139.6,-93.06 -90.03,0 -104.21,141.74 -123.91,217.32 -72.72,279.06 -192.33,478.44 -391.81,678.43 -565.85,567.29 -1504.38,566.36 -2078.47,-7.73 -943.14,-943.14 -223.44,-2516.64 996.59,-2516.64 644.68,0 1118.91,310.4 1375.5,827.02 165.48,333.18 64,491.39 268.64,491.39 172.71,0 48.75,-348.69 24.73,-412.5 -20.11,-53.41 -37.09,-92.92 -57.63,-144.02 -76.62,-190.62 -271.43,-433.89 -420.59,-572.08 -31.01,-28.73 -69.11,-57.27 -102.57,-83.56 -102.52,-80.53 -261.01,-169.61 -385.63,-219.3 -1225.09,-488.54 -2377.61,453.45 -2377.61,1586.56z"/>
   <path class="fil0" d="M5198.6 4205.91c-332.94,27.71 -618.24,576.6 -44.77,820.29 283.15,120.33 432.54,78.82 432.54,311.99 0,208.51 -363.77,247.04 -545.72,111.42 -30.35,-22.61 -42.59,-40.53 -67.53,-72.07 -143.55,-181.53 -437.12,103.4 49.31,338.46 47.84,23.11 57.62,25.34 103.9,35.69 141.41,31.62 36.78,75.96 82.1,197.1 30.78,82.26 90.75,71.87 145.28,71.87 100.79,0 93.06,-157.47 93.06,-263.68 465.15,-108.37 541.63,-664.62 82.47,-858.01 -87.1,-36.68 -184.04,-50.52 -268.71,-88.03 -462.73,-205.01 -16.27,-512.34 266.47,-313.01 67.01,47.25 91.11,95.75 183.45,95.75 43.7,0 217.15,-132.02 -47.07,-294.17 -55.45,-34.03 -145.62,-77.06 -216.61,-93.6 0,-140.79 4.04,-273.46 -124.08,-273.35 -131.34,0.11 -124.09,129.48 -124.09,273.35z"/>
  </g>
 </g>
</svg>
