<?xml version="1.0" encoding="UTF-8"?>
<!DOCTYPE svg PUBLIC "-//W3C//DTD SVG 1.1//EN" "http://www.w3.org/Graphics/SVG/1.1/DTD/svg11.dtd">
<!-- Creator: CorelDRAW 2020 (64 Bit) -->
<svg xmlns="http://www.w3.org/2000/svg" xml:space="preserve" width="105.833mm" height="105.833mm" version="1.1" style="shape-rendering:geometricPrecision; text-rendering:geometricPrecision; image-rendering:optimizeQuality; fill-rule:evenodd; clip-rule:evenodd"
viewBox="0 0 10583.32 10583.32"
 xmlns:xlink="http://www.w3.org/1999/xlink"
 xmlns:xodm="http://www.corel.com/coreldraw/odm/2003">
 <defs>
  <style type="text/css">
   <![CDATA[
    .fil0 {fill:#373435}
   ]]>
  </style>
 </defs>
 <g id="Camada_x0020_1">
  <metadata id="CorelCorpID_0Corel-Layer"/>
  <g id="_2961988479248">
   <path class="fil0" d="M6387.52 6806.05c0,-281.68 142.89,-637.62 368.74,-813.63 245.28,-191.15 393.14,-267.81 755.95,-267.81 212.18,0 426.65,87.25 582.87,195.77 39.01,27.1 37.38,31.51 70.46,59.3 81.87,68.79 128.44,115.97 191.84,211.9 247.23,374.13 257.19,822.05 11.59,1197.27 -82.34,125.8 -138.89,182.83 -259.24,274.27 -307.96,234.01 -758.57,279.18 -1102.44,109.26 -221.06,-109.23 -426.17,-298.43 -521.32,-531.28 -43.45,-106.34 -98.45,-282.99 -98.45,-435.05zm2595.44 -66.33l0 139.49c-8.95,202.36 -57.29,403.01 -148.65,585.66 -417.28,834.18 -1464,1113.27 -2221.99,587.13 -39.87,-27.68 -71.18,-50.75 -105.75,-81.7 -364.24,-326.2 -551.63,-667.57 -551.63,-1193.09l-3676.87 0c-374.74,0 -677.7,-289.64 -677.7,-605.6l0 -3301.98c0,-312.39 299.02,-605.6 677.7,-605.6l4729.47 0c245.65,0 446.6,117.33 548.17,259.29 154.5,215.92 129.53,326.54 129.53,677.95 0,538.31 0,1076.62 0,1614.94 0,560.62 -37.05,472.25 106.43,499.16 56.57,10.62 107.85,25.24 158.85,43.02 233.12,81.27 334.34,153.28 511.33,296.15 318.54,257.13 502.51,666.84 521.11,1085.18zm-2955.92 -409.5l-3691.39 0.09c-153.19,0.9 -302.71,-23.73 -302.71,-230.8l0 -1744.71 5219.72 0 0 908.4c0,58.55 -52.78,35.24 -199.02,74.93 -237.04,64.34 -571.11,266.52 -711.53,442.01 -81.64,102.02 -176.08,222.07 -233.61,343.16 -28.83,60.69 -66.59,143.09 -81.46,206.92zm-3994.1 -2840.57l5219.72 0 0 418.15 -5219.72 0 0 -418.15zm0 -547.92c0,-131.19 81.36,-230.71 216.29,-230.71l4787.15 0c218.43,0 216.28,202.73 216.28,331.64l-5219.72 0 0 -100.93z"/>
   <path class="fil0" d="M2465.52 5681.36c0,134.79 91.68,230.71 230.7,230.71l1196.79 0c306.49,0 306.49,-447 0,-447l-1196.79 0c-124.75,0 -230.7,90.97 -230.7,216.29z"/>
   <path class="fil0" d="M7411.28 6762.79c-172.61,-257.76 -475.84,-227.73 -475.84,72.1 0,98.8 139.35,204.24 198.27,263.15 330.89,330.89 296.14,272.99 879.56,-310.01 86.19,-86.13 235.47,-218.52 86.57,-382.16 -238.01,-261.57 -490.74,224.45 -688.56,356.92z"/>
   <path class="fil0" d="M2465.52 4989.24c0,134.8 91.68,230.71 230.7,230.71 202.13,0 559.11,34.34 666.4,-54.56 154.45,-127.94 86.06,-392.44 -176.15,-392.44l-490.25 0c-124.75,0 -230.7,90.98 -230.7,216.29z"/>
  </g>
 </g>
</svg>
