<?xml version="1.0" encoding="UTF-8"?>
<!DOCTYPE svg PUBLIC "-//W3C//DTD SVG 1.1//EN" "http://www.w3.org/Graphics/SVG/1.1/DTD/svg11.dtd">
<!-- Creator: CorelDRAW 2020 (64 Bit) -->
<svg xmlns="http://www.w3.org/2000/svg" xml:space="preserve" width="105.833mm" height="105.833mm" version="1.1" style="shape-rendering:geometricPrecision; text-rendering:geometricPrecision; image-rendering:optimizeQuality; fill-rule:evenodd; clip-rule:evenodd"
viewBox="0 0 10583.32 10583.32"
 xmlns:xlink="http://www.w3.org/1999/xlink"
 xmlns:xodm="http://www.corel.com/coreldraw/odm/2003">
 <defs>
  <style type="text/css">
   <![CDATA[
    .fil0 {fill:#373435}
   ]]>
  </style>
 </defs>
 <g id="Camada_x0020_1">
  <metadata id="CorelCorpID_0Corel-Layer"/>
  <path class="fil0" d="M6212.46 8054.05l939.6 0c43.28,0 56.36,13.08 56.36,56.37l0 225.51 -995.96 0 0 -281.88zm-2837.56 56.37c0,-43.29 13.07,-56.37 56.38,-56.37l939.58 0 0 281.88 -995.96 0 0 -225.51zm4171.78 -826.83l-340.64 -110.36c-111.56,-40.33 -216.16,-87.26 -335.86,-115.15 23.79,-102.15 84.11,-158.94 112.74,-281.86 72.62,6.04 556.67,188.82 714.08,225.49 -51.26,96.88 -99.96,186.69 -150.32,281.88zm-4660.36 -281.88c71.07,-5.91 543.17,-185.68 714.08,-225.49 28.63,122.92 88.95,179.71 112.74,281.86 -119.7,27.89 -224.3,74.82 -335.86,115.15l-340.64 110.36c-50.36,-95.19 -99.06,-185 -150.32,-281.88zm3720.76 18.78c0,273.95 155.11,275.46 386.7,364.98l534.1 180c143.97,0 223.11,-75.62 276.17,-174.84 72.16,-134.97 94.93,-254.83 174.85,-276.17 13.18,56.6 33.97,85.95 53.85,134.06l168.76 413.79c321.31,798.13 397.99,673.62 -730.01,673.62l0 -300.67c0,-115.23 -129.05,-244.28 -244.28,-244.28l-1033.56 0c-138.37,0 -263.08,140.46 -263.08,338.23l0 206.72 -507.38 0 0 -1822.8c17.44,20.04 -0.22,-6.16 23.97,32.4 9.14,14.54 18.78,33 26.65,48.51 18.66,36.82 27.61,56.69 43.34,88.22 298.58,598.56 320.18,482.54 996.9,94.9 110.09,-63.07 130.58,-92.82 224.58,-94.9 -41.39,78.21 -131.56,231.07 -131.56,338.23zm-2762.38 -338.23c193.08,4.29 631.7,413.42 845.62,413.42 279.58,0 335.44,-427.99 469.8,-582.55l0 1822.8 -507.38 0c0,-156.35 20.99,-335.29 -69.47,-437.92 -41.41,-46.99 -114.01,-107.03 -193.61,-107.03l-1033.56 0c-115.23,0 -244.28,129.05 -244.28,244.28l0 300.67c-137.01,0 -820.56,31.4 -893.04,-27.78 -123.73,-101.05 66.64,-404.76 162.85,-646.04l222.81 -547.65c68.25,18.22 63.45,47.6 94.27,112.42 208.27,437.98 285.11,398.21 877.39,163.95 364.09,-144 548.84,-178.94 268.6,-708.57zm1766.42 -451.02c147.78,-12.28 515.52,-206.71 676.5,-206.71l213.26 447.77 -458.61 265.27c-58.88,35.89 -88.97,69.63 -168.07,76.23 -39.39,-169.11 -241.96,-417.9 -263.08,-582.56zm-902 582.56c-80.39,-6.69 -93.82,-30.95 -156.32,-69.2l-463.82 -269.06 213.25 -447.76c163.56,-6.34 490.22,188.51 669.97,203.46 -11.8,141.72 -226.09,423.78 -263.08,582.56zm0 -1221.48c301.78,159.69 786.65,145.53 1089.92,0l0 300.67 -507.38 169.13c-16.83,0 -543.45,-187.94 -582.54,-206.7l0 -263.1zm582.54 -150.32c-338.11,0 -567.44,-88.18 -793.99,-314.73 -354.21,-354.2 -314.73,-632.87 -314.73,-1113.45l2142.28 0c0,431.63 27.23,772.69 -305.17,1104.23 -162.94,162.5 -411.97,323.95 -728.39,323.95zm-1672.46 -1221.46c0,-90.9 59.43,-150.35 150.32,-150.35l131.54 0 0 281.89 -150.32 0c-87.74,0 -131.54,-43.83 -131.54,-131.54zm3157.02 131.54l-169.14 0 0 -281.89 112.76 0c91.1,0 169.12,62.21 169.12,150.35 0,53.16 -59.64,131.54 -112.74,131.54zm-582.56 -601.34l-1860.38 0c-296.15,0 -300.66,-247.33 -300.66,-526.18l2442.92 0c0,247.93 -10,526.18 -281.88,526.18zm131.56 -789.26l-2142.28 0c-642.84,0 -543.36,-714.1 -206.7,-714.1l2555.68 0c337.26,0 426.05,714.1 -206.7,714.1zm-2893.94 -413.42c0,238.94 133.2,474.05 338.24,582.54 -70.12,301.03 57.72,520.93 93.96,676.52 -188.8,0 -274.5,2.94 -379.54,90.24 -168.7,140.14 -229.39,444.61 27.4,656.52 115.8,95.58 229.05,80.08 427.32,80.08 15.92,191.49 156.65,429.33 251.8,556.23 272.94,364.03 255.58,45.19 255.58,571.27 -54.39,-4.53 -180.04,-62.5 -325.08,69.54 -57.06,51.94 -77.18,114.51 -113.42,187.28 -41.96,84.29 -163.56,365.43 -219.05,401.04l-913.51 307.97c-484.03,168.17 -447.34,97.94 -643.89,577.57 -60.79,148.32 -340.75,785.82 -340.75,899.54 0,210.16 201.35,413.41 413.42,413.41l5975.8 0c215.68,0 413.42,-203.43 413.42,-413.41 0,-103.96 -115.65,-353.16 -155.61,-445.74l-268.38 -652.41c-65.97,-169.22 -135.52,-233.48 -303.2,-298.14 -84.02,-32.43 -150.78,-52 -238.28,-81.19l-917.21 -304.26c-74.7,-33.59 -51.83,-38.54 -121.78,-178.88 -92.64,-185.86 -196.39,-501.12 -419.68,-501.12 -86.97,0 -124.66,30.76 -206.72,37.58l0 -357.04c254.57,-134.69 439.64,-498.45 507.38,-789.24 203.16,0 302.04,11.19 425,-82.4 221.54,-168.64 231.04,-473.35 23.66,-648.14 -122.3,-103.08 -177.96,-96.3 -392.28,-96.3 126.88,-239.79 96.89,-259.66 116.37,-467.68 29.14,-311.31 -81.11,-109.4 104.78,-288.35 460.62,-443.45 167.71,-1085.57 -390.27,-1085.57l-2405.36 0c-346.33,0 -620.12,245.92 -620.12,582.54z"/>
 </g>
</svg>
