<?xml version="1.0" encoding="UTF-8"?>
<!DOCTYPE svg PUBLIC "-//W3C//DTD SVG 1.1//EN" "http://www.w3.org/Graphics/SVG/1.1/DTD/svg11.dtd">
<!-- Creator: CorelDRAW 2020 (64 Bit) -->
<svg xmlns="http://www.w3.org/2000/svg" xml:space="preserve" width="105.833mm" height="105.833mm" version="1.1" style="shape-rendering:geometricPrecision; text-rendering:geometricPrecision; image-rendering:optimizeQuality; fill-rule:evenodd; clip-rule:evenodd"
viewBox="0 0 10583.32 10583.32"
 xmlns:xlink="http://www.w3.org/1999/xlink"
 xmlns:xodm="http://www.corel.com/coreldraw/odm/2003">
 <defs>
  <style type="text/css">
   <![CDATA[
    .fil0 {fill:#373435}
   ]]>
  </style>
 </defs>
 <g id="Camada_x0020_1">
  <metadata id="CorelCorpID_0Corel-Layer"/>
  <path class="fil0" d="M6141.7 4316.19l-131.96 -110.54c-173.94,-115.12 -352.58,-183.55 -575.82,-199.26 -313.03,-22.03 -580.56,69.03 -794.05,214.11 -632.74,429.98 -773.76,1360.83 -241.64,1928.89l93 93.05c202.43,197.58 474.28,320.6 776.1,337.17 295.88,16.24 628.05,-76.71 814.52,-213.15 179.22,-131.15 432.6,-473.34 389.43,-637.77l-1043.66 -5.72c-129.43,-0.62 -98.45,6.61 -97.05,-368.42 0.39,-104.06 -13.66,-382.67 12.13,-453.54 461.29,-19.66 1359.2,-9.51 1835.18,-6.03l143.94 4.71c41.84,91.77 44.22,355.82 44.22,467.19 0,846.07 -450.27,1617.41 -1229.7,1904.3 -396.01,145.76 -930.02,189.45 -1351.17,69.13 -454.42,-129.84 -834.61,-382.13 -1118.75,-741.46 -16.75,-21.18 -25.24,-30.86 -43.32,-54.8 -317.52,-420.61 -463.07,-1015.39 -388.77,-1558.93 45.81,-335.05 196.23,-704.48 402.36,-965.58 123.88,-156.94 172.7,-216.03 338.05,-352.22l53.77 -44.53c81.98,-69.87 267.96,-179.51 362.69,-229.58l280.54 -112.9c103.32,-33.38 224.28,-62.39 317.37,-76.6 29.33,-4.47 68.95,-7.92 86.84,-10.24 190.77,-24.72 415.34,-25.68 608.97,7.17 216.07,36.67 430.77,103.68 626.33,210.23l154.74 91.88c47.97,29.83 100.44,65.9 144.24,103.11 50.89,43.22 102.5,70.76 127.44,121.68 -21.73,52.14 -237.96,249.76 -292.35,302.92 -55.05,53.81 -242.43,267.4 -303.62,285.73zm-2288.74 -2552.7c-367.55,14.28 -721.88,129.94 -1017.94,308.4 -167.52,100.97 -256.92,167.15 -377.22,288.61 -148.06,149.48 -177.49,164.21 -309.67,354.54 -119.39,171.92 -218.81,373.64 -290.91,598.14 -136.66,425.54 -102.57,1178.33 -97.84,1660.24 4.55,464.13 -23.97,1387.81 1.97,1768.21 31.13,456.54 205.25,939.63 490.9,1270.63 70.88,82.13 193.3,215.73 275.19,280.8 19.44,15.45 36.57,33.54 58.49,50.8 40.69,32.01 83.83,63.11 127.89,94.28 78.28,55.37 180,114.51 282.42,162.84 119.91,56.58 176.96,83.86 315.3,127.52 107.09,33.81 233.72,59.52 353.76,77.86 211.53,32.31 1893.66,24.74 2196.16,19.83 599.4,-9.75 1027.7,68.79 1592.48,-163.15 779.77,-320.22 1347.63,-1093.85 1370.5,-1943.99 16.79,-624.33 -6.69,-1344.95 1.32,-1991.37 3.61,-291.29 23.03,-783.35 -21.96,-1072.92 -61.15,-393.62 -218.2,-786.85 -471.97,-1081.25l-273.29 -280.91c-22.8,-17.58 -37.18,-32.27 -60.42,-50.61 -206.12,-162.58 -451.28,-300.43 -725.96,-384.62 -473.89,-145.24 -1127.35,-96.87 -1659.64,-98.41 -575.13,-1.67 -1191.57,-17.55 -1759.56,4.53z"/>
 </g>
</svg>
