<?xml version="1.0" encoding="UTF-8"?>
<!DOCTYPE svg PUBLIC "-//W3C//DTD SVG 1.1//EN" "http://www.w3.org/Graphics/SVG/1.1/DTD/svg11.dtd">
<!-- Creator: CorelDRAW 2020 (64 Bit) -->
<svg xmlns="http://www.w3.org/2000/svg" xml:space="preserve" width="105.833mm" height="105.833mm" version="1.1" style="shape-rendering:geometricPrecision; text-rendering:geometricPrecision; image-rendering:optimizeQuality; fill-rule:evenodd; clip-rule:evenodd"
viewBox="0 0 10583.32 10583.32"
 xmlns:xlink="http://www.w3.org/1999/xlink"
 xmlns:xodm="http://www.corel.com/coreldraw/odm/2003">
 <defs>
  <style type="text/css">
   <![CDATA[
    .fil0 {fill:#373435}
   ]]>
  </style>
 </defs>
 <g id="Camada_x0020_1">
  <metadata id="CorelCorpID_0Corel-Layer"/>
  <g id="_2961996252240">
   <path class="fil0" d="M7845.43 5981.59c-26.52,467.45 13.71,713.96 -188.11,1108.65 -133.02,260.13 -371.89,497.85 -671.88,614.97 -511.41,199.66 -1802.42,143.61 -2427.4,140.5 -687.21,-3.41 -1416.63,-113.93 -1711.08,-856.14 -214.32,-540.21 -121.65,-1769.45 -122.97,-2414.77 -1.84,-897.68 186.11,-1446.54 840.33,-1737.16 362.53,-161.04 731.7,-123.63 1154.52,-132.89 615.99,-13.48 1909.35,-84.4 2394.37,179.5 257.19,139.94 487.63,377.33 607.07,678.58 187.05,471.79 157.69,1844.99 125.15,2418.76zm-4251.34 2793.8c-512.68,-17.89 -980.05,-113.13 -1328.29,-461.35 -443.5,-443.5 -455.29,-833.65 -461.36,-1032.58l0 -2610.45c27.27,-71.7 14.92,-1177.6 25.74,-1381.03 41.83,-786.19 575.64,-1406.93 1341.05,-1487.72 431.98,-45.59 3831.35,-56.02 4228.78,-7.68 589.94,71.76 1013.68,401 1228.45,880.18 84.72,188.99 100.15,467.19 150.43,578.61 0,1171.6 -10.73,2340.58 -10.73,3512.09 0,499.27 5.42,882.74 -231.53,1265.87 -181.03,292.73 -433.91,524.97 -838.73,647.4 -814.56,246.36 -3057.62,96.66 -4103.81,96.66z"/>
   <path class="fil0" d="M5084.48 3965.48c776.72,-130.01 1402.09,453.62 1498.49,1094.75 117.86,783.91 -448.68,1407.05 -1096.09,1507.84 -778.99,121.26 -1406.59,-438.21 -1503.52,-1097.63 -117.03,-796.17 442.43,-1394.71 1101.12,-1504.96zm1489.81 -358.06c355.39,-141.05 547.47,428.24 202.2,552.52 -370.66,133.42 -605.88,-392.3 -202.2,-552.52zm-3423.2 1710.89c0,491.55 -37.22,1323.4 203.9,1664.95 323.21,457.83 850.43,415.32 1464.34,415.32l949.7 0c554.67,0 1043.48,18.8 1361.94,-311.71 298.87,-310.19 281.17,-904 281.17,-1406.77 0,-2602.4 124.19,-2552.61 -2552.61,-2552.61 -683.71,0 -1215.4,-23.78 -1509.1,441.29 -234.07,370.64 -199.34,1248.16 -199.34,1749.53z"/>
   <path class="fil0" d="M5134.57 4402.56c-1137.55,206.9 -835.74,1922.55 295.08,1727.72 435.95,-75.12 795.22,-480.4 716.74,-1011.83 -64.38,-435.97 -491.18,-810.59 -1011.82,-715.89z"/>
  </g>
 </g>
</svg>
