<?xml version="1.0" encoding="UTF-8"?>
<!DOCTYPE svg PUBLIC "-//W3C//DTD SVG 1.1//EN" "http://www.w3.org/Graphics/SVG/1.1/DTD/svg11.dtd">
<!-- Creator: CorelDRAW 2020 (64 Bit) -->
<svg xmlns="http://www.w3.org/2000/svg" xml:space="preserve" width="105.833mm" height="105.833mm" version="1.1" style="shape-rendering:geometricPrecision; text-rendering:geometricPrecision; image-rendering:optimizeQuality; fill-rule:evenodd; clip-rule:evenodd"
viewBox="0 0 10583.32 10583.32"
 xmlns:xlink="http://www.w3.org/1999/xlink"
 xmlns:xodm="http://www.corel.com/coreldraw/odm/2003">
 <defs>
  <style type="text/css">
   <![CDATA[
    .fil0 {fill:#373435}
   ]]>
  </style>
 </defs>
 <g id="Camada_x0020_1">
  <metadata id="CorelCorpID_0Corel-Layer"/>
  <g id="_2961983743152">
   <path class="fil0" d="M2078.8 5178.71c0,616.9 58.2,913.01 297.58,1472.01l134.38 254.67c128.53,217.31 174.13,266.51 321.02,457.09 30.05,38.98 58.08,61.36 87.88,100.37 188.63,247 689.49,600.36 1004.18,740.31 181.05,80.51 360.73,150.36 574.61,203.5 225.86,56.12 446.8,88.41 664.27,97.86l269.72 0c416.44,-18.24 822.01,-120.97 1227.03,-301.36 38.03,-16.94 88.97,-42.15 125.11,-63.15l585.13 -393.79c41.66,-32.41 55.93,-53.51 100.39,-87.86l193.55 -195.51c152.79,-200.06 266.34,-289.63 414.18,-564.73 75.29,-140.09 128.58,-234.04 190.2,-387.12 18.01,-44.73 35.48,-93.6 55.49,-145.31 115.34,-298.12 175.19,-659.66 181,-1017.56l0 -115.64c-3.42,-209.29 -25.43,-414.81 -65.74,-603 -32.9,-153.58 -64.92,-417.14 -235.47,-417.14 -74.29,0 -163.15,80.94 -163.15,163.14 0,53.33 35.51,145.7 47.76,190.7 18.75,68.92 30.81,132.47 43.58,207.42 69.38,407.13 67.59,799.6 -33.45,1203.45 -50.21,200.7 -112.35,352.04 -181.58,521.23 -176.33,430.9 -573.56,871.06 -941.12,1142.22 -68.39,50.46 -138.49,93.58 -212.94,138.46 -74.89,45.16 -148.09,87.24 -228.44,122.98 -817.58,363.59 -1638.65,378.18 -2459.52,12.55 -155.05,-69.05 -299.33,-162.14 -436.93,-253.33l-294.47 -232.65c-305.06,-306.61 -477.71,-510.03 -666.19,-902.59 -363.8,-757.68 -366.46,-1705.06 0,-2468.54 377.23,-785.89 1064.4,-1352.38 1919.33,-1569.64 456.87,-116.1 944.05,-108.32 1401.05,2.44 125.89,30.51 222.72,98.74 315.15,6.93 108.89,-108.14 48.35,-243.99 -88.9,-283.38 -267.86,-76.88 -523.48,-121.48 -773.49,-134.94l-322.58 0c-396.15,21.46 -785.24,122.19 -1194.82,297.58 -142.23,60.91 -366.17,196.55 -491.14,286.97 -186.13,134.65 -187.14,152.81 -319.12,258.18 -296.5,236.71 -574.92,661.72 -742.53,1001.97 -143.81,291.98 -301.01,820.78 -301.01,1255.21z"/>
   <path class="fil0" d="M6436.32 4552.15l-389.06 0c0,-517.14 -68.77,-339.11 310.62,-718.51 78.24,-78.24 253.4,-272.24 329.44,-323.16 0,425.85 -24.24,401.6 401.61,401.6 -17.71,26.45 -611.08,640.07 -652.61,640.07zm-1832.34 1267.57c0,118.37 57.34,175.7 175.71,175.7 79.6,0 140.11,-83.63 185.11,-128.63l952.93 -954.72c45.57,-45.58 44.87,-35.02 129.13,-34.01l477.18 0.27c102.09,-7.65 139.2,-69.91 197.79,-128.51l796.94 -796.94c44.1,-44.09 134.92,-115.84 134.92,-191.39 0,-100.8 -83.78,-175.71 -188.25,-175.71l-451.82 0c0,-177.55 31.12,-495.55 -46.25,-581.25 -151.17,-167.43 -310.73,66 -471.44,226.71l-640.06 640.06c-178.25,178.25 -134.92,144.4 -134.92,505.15 0,50.21 -0.3,100.51 0.1,150.7 1.37,168.97 4.44,114.59 -185.21,304.24l-796.94 796.94c-46.01,46 -134.92,110.62 -134.92,191.39z"/>
   <path class="fil0" d="M3057.72 5268.55c0,426.01 107.69,822.75 293.9,1136.83l225.9 326.31c25.34,32.43 40.77,42.71 67.06,70.98 68.9,74.05 124.69,139.93 214.46,212.25l325.68 226.53c602.86,363.74 1417.89,391.43 2056.64,93.78 65.8,-30.66 124.31,-61.66 180.54,-95.57 59.12,-35.66 111.99,-64.58 169.71,-106.39 330.72,-239.6 587.02,-542.11 758.5,-923.24 109.89,-244.23 200.59,-563.24 200.59,-916.38 0,-52.17 -12.01,-176.98 -26.39,-212.07 -56.59,-138.1 -312.47,-163.79 -312.47,99.12 0,52.93 6.18,72.98 9.54,104.24l-30.88 338.77c-22.8,142 -63.5,271.53 -111.2,390.82 -43.81,109.55 -107.04,229.67 -166.07,323.38 -19.69,31.26 -33.87,46.04 -52.69,72.81 -97.49,138.72 -94.04,112.57 -171.86,204.65l-119.8 118.66c-301.7,300.26 -845.85,479.8 -1277.22,479.8 -573.65,0 -1056.99,-272.55 -1346.03,-561.6 -508.25,-508.23 -696.77,-1280.99 -456.65,-1981.54 115.48,-336.93 333.34,-647.67 612.02,-868.91 337.97,-268.32 754.08,-412.74 1191.83,-425.83 104.76,-3.12 312.58,78.32 312.58,-165.64 0,-272.65 -681.09,-131.73 -795.68,-105.43 -559,128.32 -1008.59,445.47 -1339.81,894.14 -245.67,332.77 -412.2,825.84 -412.2,1269.53z"/>
   <path class="fil0" d="M4024.08 5205.8c0,255.49 1.02,405.19 121.22,644.34 133.34,265.28 329.38,465.08 594.09,598.19 495.69,249.27 1093.82,128.86 1477.85,-254.2 324.61,-323.78 536.27,-1063.64 203.94,-1063.64 -73.39,0 -132.7,52.75 -152.96,110.61 -32.58,93.05 26.97,324.82 -200.1,628.21 -134.85,180.18 -402.23,378.16 -713.71,378.16 -184.72,0 -298.16,-3.81 -473.04,-91.72 -47.06,-23.67 -92.46,-50.12 -133.22,-80.13 -25.45,-18.74 -38.63,-30.55 -62.87,-50.09 -24.79,-20.01 -40.18,-28.27 -62.43,-50.53 -20.05,-20.03 -28.25,-34.31 -44.94,-55.45 -181.98,-230.57 -227.52,-367.21 -227.52,-676.11 0,-311.47 197.98,-578.85 378.16,-713.7 96.29,-72.07 228.64,-140.9 369.48,-170.18 109.98,-22.86 369.34,20.08 369.34,-182.88 0,-334.8 -746.71,-114.74 -1057.38,197.65 -206.2,207.35 -385.91,517.47 -385.91,831.47z"/>
  </g>
 </g>
</svg>
