<?xml version="1.0" encoding="UTF-8"?>
<!DOCTYPE svg PUBLIC "-//W3C//DTD SVG 1.1//EN" "http://www.w3.org/Graphics/SVG/1.1/DTD/svg11.dtd">
<!-- Creator: CorelDRAW 2020 (64 Bit) -->
<svg xmlns="http://www.w3.org/2000/svg" xml:space="preserve" width="105.833mm" height="105.833mm" version="1.1" style="shape-rendering:geometricPrecision; text-rendering:geometricPrecision; image-rendering:optimizeQuality; fill-rule:evenodd; clip-rule:evenodd"
viewBox="0 0 10583.32 10583.32"
 xmlns:xlink="http://www.w3.org/1999/xlink"
 xmlns:xodm="http://www.corel.com/coreldraw/odm/2003">
 <defs>
  <style type="text/css">
   <![CDATA[
    .fil0 {fill:#373435}
   ]]>
  </style>
 </defs>
 <g id="Camada_x0020_1">
  <metadata id="CorelCorpID_0Corel-Layer"/>
  <g id="_2961986610144">
   <path class="fil0" d="M2465.47 7734.83c0,-158.29 163.05,-104.03 241.32,-72.28 204.42,82.92 785.71,206.66 992.59,236.88 825.14,120.52 1130.47,112.03 1931.96,112.03 512.05,0 1351.87,-107.7 1844.23,-230.49 301.07,-75.08 645.43,-264.55 645.43,-46.14 0,115.08 -137.66,130.35 -236.33,163.25 -318.2,106.1 -629.48,172.92 -971.02,227.7 -1212.6,194.5 -3051.21,162.67 -4200.39,-223.8 -93.39,-31.41 -247.79,-49.48 -247.79,-167.15zm1383.14 -61.48l106.23 -447.03c11.14,-59.22 4.54,-136.96 62.83,-136.96l2551.13 0c61.29,0 46.48,69.3 58.41,126.01 114.84,545.68 244.77,479.45 -212.52,519.03 -121.56,10.52 -240.87,29.86 -368.66,30.91 -83.56,0.68 -90.55,13.8 -168.3,16.13 -65.76,1.96 -135.03,-2.98 -200.79,-1.02l-952.95 1.12 -719.05 -64.73c-29.77,-3.06 -156.33,-4.96 -156.33,-43.46zm2981.45 -583.99l230.53 0c34.22,146.9 82.15,405.47 138.31,522.52 -62.87,14.65 -165.16,40.67 -230.52,46.1 -21.83,-93.69 -51.39,-188.87 -73.91,-279.57l-64.41 -289.05zm-3211.97 568.62c-65.37,-5.43 -167.66,-31.45 -230.53,-46.1 55.37,-115.38 104.61,-377.82 138.32,-522.52l230.52 0 -138.31 568.62zm30.74 -1029.67l3442.5 0 0 230.52 -3842.08 0c38.94,-167.15 192.28,-230.52 399.58,-230.52zm1982.51 -860.62l814.52 0c1.48,66.96 15.27,72.59 15.77,153.27 0.51,81.23 6.38,112.93 12.62,171.8 9.27,87.56 6.09,264.13 33.08,320.39l-875.99 0 0 -645.46zm-445.68 0l215.15 0 0 645.46 -215.15 0 0 -645.46zm-1045.05 0l814.52 0 0 645.46 -875.99 0 61.47 -645.46zm2535.77 0l230.53 0c0,221.65 46.1,536.17 46.1,645.46l-230.52 0c0,-213.62 -46.11,-421.54 -46.11,-645.46zm-2812.4 645.46l-230.52 0c0,-147.11 46.1,-385.69 46.1,-645.46l230.53 0c0,223.92 -46.11,431.84 -46.11,645.46zm-676.2 -1091.15l3903.55 0 0 215.16 -4149.44 0c15.07,-64.69 42.21,-102.88 87.84,-142.68 32.27,-28.14 105.16,-72.48 158.05,-72.48zm3703.76 -445.67l0 215.15 -230.53 0c0,-813.02 92.09,-1759.38 343.9,-2514.6 32.9,-98.67 48.16,-236.33 163.25,-236.33 219.5,0 27.37,350.67 -46.14,645.43 -137.4,550.96 -230.48,1309.58 -230.48,1890.35zm-461.05 215.15l-3211.97 0c-78.86,0 -152.73,23.69 -210.54,50.73 -122.81,57.46 -212.11,150.69 -266.19,271.7 -26.99,60.39 -45.8,142.05 -45.8,230.83 0,156.81 168.18,122.96 322.74,122.95 148.55,-0.02 297.11,0 445.68,0 -10.01,120.25 -24.67,253.8 -31.02,383.92 -2.66,54.39 -11.31,114.88 -18.76,181.03 -11.52,102.27 -1.21,91.7 -87.64,127.51 -258.84,107.27 -447.07,547.75 -237.42,619.83 56.56,19.44 140.23,9.38 205.78,9.38l-122.94 476.41c-226.31,-52.72 -472.98,-169.04 -630.1,-169.04 -159.08,0 -307.36,148.28 -307.36,307.36 0,314 226.99,363.95 544.35,454.57 462.28,131.99 702.77,165.96 1168.16,230.36 322.24,44.59 1014.08,83.49 1330.41,83.49 444.82,0 1323.2,-53.5 1750.7,-139.6 292.31,-58.88 876.71,-165.77 1134.06,-295.19 307.31,-154.57 220.12,-640.99 -164.58,-640.99 -82.99,0 -200.81,58.99 -285.31,83.51 -106.86,31.01 -188.41,59.84 -298.68,85.53l-83.06 -301.15c-69.48,-275.02 -24.52,-153.01 -24.52,-344.31 0,-366.85 49.88,-503.31 -122.94,-507.16l-46.11 -476.42c-0.23,-84.91 -13.89,-102.5 -15.37,-169.04 241.36,0 184.42,-63.39 184.42,-568.63 0,-125.95 -127.92,-107.58 -199.79,-107.58 0,-672.9 100.84,-1698.91 313.14,-2330.21 63.79,-189.69 161.31,-371.61 -8.92,-540.52 -176.8,-175.43 -409.23,-130.4 -532.49,60.59 -41.65,64.55 -97.24,255.36 -123.38,337.66 -115.6,363.9 -265.67,1173.08 -278.47,1581.09 -4.14,131.73 -31.64,293.44 -31.07,429.98 0.72,175.95 -15.01,292.76 -15.01,461.41z"/>
   <path class="fil0" d="M3694.93 3477.81c0,-243.77 -6.92,-325.17 107.4,-553.44 256.23,-511.62 847.22,-718.4 1372.66,-496.31 170.52,72.08 309.78,188.79 419.24,333.8 240.07,318.07 274.16,757.08 98.92,1115.87 -372.56,762.83 -1501.37,775.06 -1885.74,10.12 -55.46,-110.38 -112.48,-252.26 -112.48,-410.04zm-230.52 -122.95c0,543.11 263.98,965.1 701.47,1188.82 1009.39,516.19 2248.04,-474.45 1751.12,-1674.27 -245.6,-592.98 -1013.65,-942.51 -1679.06,-646.68l-200.29 107.07c-73.95,44.6 -119,86.36 -177.52,145.21 -118.49,119.15 -187.84,202.55 -268.03,362.07 -61.75,122.8 -127.69,340.01 -127.69,517.78z"/>
   <path class="fil0" d="M4862.92 3892.75l0 -338.1c133.6,70.69 120.72,257.27 0,338.1zm-322.73 -814.52c0,-54.09 -2.13,-66.36 23.96,-114.35 24.2,-44.5 23.01,-42.62 68.25,-54.7l0 338.11c-57.15,-38.27 -92.21,-73.3 -92.21,-169.06zm92.21 -414.94c-372.12,30.96 -469.01,720.62 0,829.89l0 399.57c-183.27,-122.72 -8.74,-276.62 -230.53,-276.62 -167.51,0 -106.96,443.89 230.53,522.52 0,106.21 6.57,199.78 107.57,199.78 117.7,0 122.95,-81.4 122.95,-199.78 301.31,-70.2 420.66,-448.3 226.48,-687.54 -44.6,-54.96 -140.89,-135.23 -226.48,-142.35l0 -399.58c146.28,39.06 40.18,276.63 199.79,276.63 261.06,0 65.76,-500.43 -199.79,-522.52 0,-301.28 -188.35,-195.51 -216.06,-139.22 -20.63,41.89 -14.46,77.51 -14.46,139.22z"/>
  </g>
 </g>
</svg>
