<?xml version="1.0" encoding="UTF-8"?>
<!DOCTYPE svg PUBLIC "-//W3C//DTD SVG 1.1//EN" "http://www.w3.org/Graphics/SVG/1.1/DTD/svg11.dtd">
<!-- Creator: CorelDRAW 2020 (64 Bit) -->
<svg xmlns="http://www.w3.org/2000/svg" xml:space="preserve" width="105.833mm" height="105.833mm" version="1.1" style="shape-rendering:geometricPrecision; text-rendering:geometricPrecision; image-rendering:optimizeQuality; fill-rule:evenodd; clip-rule:evenodd"
viewBox="0 0 10583.32 10583.32"
 xmlns:xlink="http://www.w3.org/1999/xlink"
 xmlns:xodm="http://www.corel.com/coreldraw/odm/2003">
 <defs>
  <style type="text/css">
   <![CDATA[
    .fil0 {fill:#373435}
   ]]>
  </style>
 </defs>
 <g id="Camada_x0020_1">
  <metadata id="CorelCorpID_0Corel-Layer"/>
  <g id="_2961994030624">
   <path class="fil0" d="M3355.14 7952.47l107.5 349.39 -104.34 110.67 -94.1 -100.36c11.87,-61.26 28.07,-108.58 45.18,-177 16.2,-64.76 40.47,-119.15 45.76,-182.7zm-928.98 779.42l-31.62 0c-46.24,-6.58 -87.6,-40.68 -87.6,-80.63l0 -550.97c0,-209.9 144.94,-384.85 303.43,-489.44 213.67,-140.98 422.25,-41.37 422.25,-357.18 0,-143.94 4.26,-101.64 -74.76,-153.7 -88.49,-58.3 -153.7,-166.62 -153.7,-289.77l0 -604.73c0,-116.53 82.18,-223.33 153.09,-276.94 135.44,-102.42 313.39,-85.89 491.96,-85.89 278.35,0 483.78,129.42 483.78,403.15l0 550.97c0,273.51 -228.46,309.8 -228.46,376.28l0 134.38c0,233.17 234.81,178.36 430.03,309.08 283.89,-423.94 752.55,-251.27 752.55,-577.84 0,-439.92 -6.78,-172.19 -177.09,-387.33 -46.68,-58.98 -91.67,-142.05 -91.67,-244.28l0 -765.99c0,-58.94 34.52,-141.32 57.66,-184.23 79.58,-147.56 253.7,-232.36 453,-232.36 170.26,0 395.11,-15.71 539.79,38.06 209.71,77.93 293.39,269.75 293.39,512.91 0,247.25 37.75,683.94 -80.13,847.12 -28.87,39.96 -58.02,69.07 -102.33,99.25 -122.17,83.24 -99.75,15.71 -99.75,303.4 0,250 239.39,198.6 282.44,310.18 30.82,79.85 -33.59,150.6 -114.48,137.49 -276.31,-44.81 3.68,-133.68 -436.73,-31.07 16.95,72.75 46.72,140.82 68.9,213.3 221.12,722.46 258.43,570.81 8.31,818.03 -107.43,106.19 -115.69,178.12 -238.47,178.12 -42.36,0 -224.03,-215.69 -261.02,-263.07 -22.59,-28.96 -74.94,-64.54 -74.94,-99.76 0,-123.09 125.16,-503.23 164.17,-642.14 13.96,-49.7 49.52,-144.91 50.85,-204.48 -84.79,-1.89 -151.57,-40.32 -228.46,-40.32 -1.89,0 -74.21,37.75 -89.96,44.42 -92.28,39.13 -190.13,54.71 -295.61,107.54 -119.84,60.03 -208.32,144.18 -257.95,266.15 -32.32,79.39 -42.73,113.95 -42.02,226.76 0.57,89.61 0.18,179.32 0.18,268.94 0,150.3 45.07,416.59 -107.5,416.59 -61.15,0 -107.51,-32.05 -107.51,-107.51 0,-179.2 -23.78,-686.15 40.32,-819.74 -119.14,-79.78 -241.87,-89.6 -326.08,-131.18 -127.72,-63.06 -60.77,-3.2 -211.46,-3.2 1.94,86.99 70.7,250.49 94.07,335.96 105.23,384.81 169.13,294.5 -57.12,520.74 -222.39,222.39 -204.86,155.24 -355.87,-0.25 -252.3,-259.76 -119.37,-173.06 36.71,-843.01 -232.5,-54.17 -109.13,-36.53 -357.79,45.36 -321.86,105.99 -354.46,264.67 -354.44,613.12 0,66.35 15.67,300.34 -15.8,347.04 -17.43,25.85 -41.51,38.94 -66.56,42.67zm2837.23 -994.44l26.88 0c4.94,59.36 126.95,407.67 147.82,497.22 -79.25,53.07 -120.26,133.8 -161.26,161.26 -12.84,-9.41 -91.61,-95.39 -111.78,-117.34 -59.17,-64.38 6.27,-192.19 50.39,-347.19 16.39,-57.56 46.64,-135.24 47.95,-193.95zm-2029.2 -470.34c144.74,33.72 100.08,39.3 268.77,0 0,85.33 12.04,138.64 13.44,201.57l-188.14 13.44c-67.54,0 -60.17,-12.08 -120.95,-13.44 26.49,-55.2 26.88,-118.06 26.88,-201.57zm2029.2 -26.88c-89.38,0 -116.33,-13.44 -201.58,-13.44 9.86,-118.41 40.32,-23.5 40.32,-309.08 263.86,61.47 138.33,52.3 362.83,0 0,54.19 3.41,117.87 9.16,152.11 10.87,64.82 26.88,92.05 31.16,143.53 -82.01,1.83 -144.93,26.88 -241.89,26.88zm-2257.65 -712.24c59.31,-13.81 114.86,-48.38 163.63,-78.91 77.15,-48.32 94.79,-14.04 184.06,13.43l286.16 90.12c98.8,30.46 78.38,-4.96 78.38,271.01 0,111.79 -296.1,255.33 -362.83,255.33 -47.19,0 -263.37,-137.13 -286.22,-157.25 -85.56,-75.29 -63.18,-239.16 -63.18,-393.73zm1814.18 -161.26c0,-370.18 -29.54,-323.55 89.48,-380.86 41.39,-19.93 66.63,-32.88 107.62,-53.68 131.32,-66.64 82,-47.13 230.09,-6.08 162.64,45.08 328.35,118.41 500.06,158.42 0,210.82 35.16,376.17 -85.86,465.1 -57.36,42.16 -111.65,71.46 -173.71,108.5 -225.51,134.61 -225.97,107.05 -490.45,-52.03 -90.89,-54.68 -177.23,-97.96 -177.23,-239.37zm-1814.18 -80.63c6.31,-283.55 216.54,-228.45 524.1,-228.45 211.72,0 188.13,185.42 188.13,295.65 -104.72,-8.72 -394.72,-147.83 -524.09,-147.83 -31.16,0 -111.97,74.29 -188.14,80.63zm1814.18 -497.22c0,-111.84 3.33,-176.29 50.42,-245.22 39.84,-58.31 98.78,-104.18 191.47,-104.18l443.47 0c273.25,0 241.89,302.55 241.89,430.03 -84.18,-40.39 -214.12,-68.86 -314.16,-102.43 -62.02,-20.8 -278.27,-99.14 -330.88,-99.14 -66.97,0 -201.64,102.17 -282.21,120.94z"/>
   <path class="fil0" d="M2804.16 2254.58c0,239.53 -42.3,430.03 107.51,430.03 203.05,0 -7.17,-369.85 170.6,-555.07 43.37,-45.19 96.68,-76.53 178.8,-76.53l4031.52 0c167.87,0 268.77,100.9 268.77,268.76l0 1746.99c0,301.71 -269.22,268.77 -470.35,268.77l-1102.45 -0.5c-284.71,-0.86 -210.38,195.27 -407.92,344.63 -207.6,156.98 -495.51,113.24 -650.36,-51.34 -81.45,-86.57 -118.39,-243.28 -239.91,-284.18 -165.85,-55.83 -1378.17,41.57 -1546.64,-39.08 -138.82,-66.45 -138.11,-202.43 -138,-399.55 0.05,-67.32 10.73,-877.78 -6.27,-920.97 -35.5,-90.15 -195.3,-78.7 -195.3,47.47l0 1075.07c0,159.84 96.89,287.52 195.65,355.32 143.24,98.33 264.9,74.71 489.71,74.71 376.27,0 752.55,0 1128.83,0 24.21,36.15 22.26,26.56 47.39,73.56 117.31,219.38 281.39,315.01 517.02,369.91 0,199.53 147.66,161.7 185.77,105.14 25.1,-37.24 15.8,-48.75 15.8,-105.14 122.29,-10.18 270.34,-88.1 345.64,-151.59 132.13,-111.4 136.63,-169.2 218.78,-291.88 367.31,0 734.63,0 1101.95,0 216.48,0 343.85,24.07 493.05,-57.92 97.59,-53.63 219.18,-189.26 219.18,-331.79l0 -1908.26c0,-178.72 -189.08,-389.71 -416.59,-389.71l-4125.59 0c-222.11,0 -416.59,222.61 -416.59,403.15z"/>
   <path class="fil0" d="M7185.08 7979.34l26.88 0c4.33,52.12 28.01,103.65 43.16,158.42 14.49,52.41 37.69,107.38 50.91,164.1l-104.35 110.67 -75.07 -80.02c-32.53,-43.61 -23.06,-52.71 -6.71,-108.42 18.19,-61.95 59.4,-175.25 65.18,-244.75zm13.44 -497.22c-97.37,0 -89.03,-12.13 -147.82,-13.44 6.54,-78.67 26.88,-93.05 26.88,-201.57 158.52,36.93 93.5,37.7 255.32,0 0,29.8 -1.97,63.62 1.75,92.81 1.2,9.44 17.64,83.1 17.36,84.57 -7.1,36.22 -64.42,37.63 -153.49,37.63zm13.44 -403.15c-64.46,0 -241.15,-107.41 -303.85,-153.06 -50.66,-36.87 -59.99,-85.02 -59.54,-168.91 0.4,-76.35 0.55,-152.63 0.55,-229.01 37.1,-9.9 121.4,-61.06 161.04,-81.51 91.63,-47.28 204.61,24.88 378.08,79.93 197.94,62.8 173.12,-3.18 173.12,256.91 0,119.6 -61.72,143.62 -134.99,187.54 -43.68,26.17 -161.63,108.11 -214.41,108.11zm-362.84 -792.87c0,-286.45 194.71,-228.45 537.54,-228.45 172.59,0 174.7,195.53 174.7,295.65 -62.8,-5.23 -175.93,-51.95 -249.66,-72.87 -72.25,-20.49 -191.68,-74.96 -261,-74.96 -61.29,0 -133.19,64.7 -201.58,80.63zm-215.01 0c0,195.15 -26.49,557.96 53.88,698.68 36,63.03 102.19,131.08 174.57,147.94 0,177.81 26.48,290.73 -103.17,353.74 -46.66,22.68 -116.73,38.86 -170.9,57.55 -60.62,20.92 -105.89,46 -155.96,72.49 -144.29,-272.68 -331.67,-200.17 -316.87,-70.83 12.03,105.08 188.09,119.04 236.6,406.44 76.06,450.59 -101.36,779.78 134.03,779.78 32.35,0 80.63,-48.27 80.63,-80.63l0 -671.92c0,-85.87 -26.88,-102.26 -26.88,-188.14l349.4 -134.38c60.92,0 111.22,15.22 161.26,26.88l-74.82 288.01c-122.08,427.29 -133.4,351.78 10.88,515.04 207.82,235.15 192.13,242.58 423.44,13.36 167.2,-165.69 140.41,-145.68 14.97,-518.97l-92.27 -297.44c5.48,-2.63 145.11,-40.32 147.83,-40.32l313.24 116.79c515.51,216.12 76.24,971.72 372.12,971.72 69.34,0 107.5,-55.95 107.5,-120.94 0,-412.27 52.48,-760.88 -297.96,-992.13 -103.34,-68.19 -205.69,-82.34 -324.84,-132.06 -131.72,-54.96 -102.87,-181.3 -102.87,-354.04 93.81,-25.05 215.01,-158.84 215.01,-282.2l0 -658.48c0,-114.56 -79.59,-201.75 -144.23,-258.92 -123.1,-108.88 -344.85,-90.48 -514.25,-90.48 -289.22,0 -470.34,156.89 -470.34,443.46z"/>
   <path class="fil0" d="M3758.29 2751.8l3050.52 0c159.79,0 159.79,-215.01 0,-215.01l-3050.52 0c-151.82,0 -151.82,215.01 0,215.01z"/>
   <path class="fil0" d="M3825.48 3316.22l2929.57 0c248.3,0 199.99,-215.02 67.19,-215.02l-3077.39 0c-123.67,0 -183.86,215.02 80.63,215.02z"/>
   <path class="fil0" d="M4363.02 3746.24c0,71.36 34.7,120.95 107.51,120.95l1626.04 0c133.54,0 180.59,-215.01 -67.19,-215.01 -197.56,0 -1523.46,-21.65 -1606.26,19.78 -22.1,11.06 -60.1,54.53 -60.1,74.28z"/>
  </g>
 </g>
</svg>
