<?xml version="1.0" encoding="UTF-8"?>
<!DOCTYPE svg PUBLIC "-//W3C//DTD SVG 1.1//EN" "http://www.w3.org/Graphics/SVG/1.1/DTD/svg11.dtd">
<!-- Creator: CorelDRAW 2020 (64 Bit) -->
<svg xmlns="http://www.w3.org/2000/svg" xml:space="preserve" width="105.833mm" height="105.833mm" version="1.1" style="shape-rendering:geometricPrecision; text-rendering:geometricPrecision; image-rendering:optimizeQuality; fill-rule:evenodd; clip-rule:evenodd"
viewBox="0 0 10583.32 10583.32"
 xmlns:xlink="http://www.w3.org/1999/xlink"
 xmlns:xodm="http://www.corel.com/coreldraw/odm/2003">
 <defs>
  <style type="text/css">
   <![CDATA[
    .fil0 {fill:#373435}
   ]]>
  </style>
 </defs>
 <g id="Camada_x0020_1">
  <metadata id="CorelCorpID_0Corel-Layer"/>
  <path class="fil0" d="M4069.08 7922.2c94.12,0 170.98,-33.24 227.51,-71.09 269,180.14 509.42,189.2 605.97,318.27 150.27,200.87 87.15,285.45 -79.87,534.88l-1507.23 0c-11.75,-44.03 -62.47,-118.77 -84.57,-157.15 -17.5,-30.4 -26.78,-50.37 -46.7,-81.95 -22.87,-36.26 -33.28,-44.37 -30.4,-81.35 9.25,-119.08 116.99,-265.79 203.91,-305.62 121.71,-55.76 261.26,-82.75 435.42,-191.39 116.3,-72.54 87.22,35.4 275.96,35.4zm-327.04 -966.9c0,-420.6 543.21,-364.22 630.7,-161.46 56.49,130.91 -31.46,312.69 94.47,346.31 0,87.02 -13.45,120.92 -65.09,162.41 -94.63,76.04 -46.43,162.46 -166.07,303.17 -267.17,314.21 -443.11,-248.41 -475.96,-284.56 -60.09,-66.15 -64.86,-48.36 -89.15,-152.58 113.04,-168.8 71.1,-3.69 71.1,-213.29zm-298.6 184.85c0,226.53 116.43,257.87 178.63,418.58 25.89,66.89 49.51,77.65 63.09,135.97 -56.89,13.25 -207.67,97.9 -296.65,129.92 -114.15,41.08 -174.95,49.34 -276.09,150.48 -92.24,92.24 -72.78,122.87 -123.99,160.39l-412.36 -725.17c148.13,-279.94 384.92,-670.24 555.29,-966.17 30.51,-53.01 60.16,-104.8 94.3,-161.63 25.92,-43.13 78.13,-122.44 89.8,-166.14l1507.23 0c14.85,55.6 500,869.77 573.65,1004.67 139.09,254.79 198.92,251.13 124.13,375.42 -47.2,78.45 -342.71,579.76 -356.52,639.02l-28.43 0c-27.23,-116.87 -173.51,-232.17 -280.12,-274.43l-388.19 -166.36c4.12,-49.51 17.11,-52.63 37.8,-90.18 21.03,-38.15 21.14,-49.43 38.91,-89.06 22.75,-50.69 213.94,-235.42 142.6,-452.05 -23.15,-70.28 -37.43,-42.54 -55.54,-87.02 -18.89,-46.41 -0.36,-151.78 -27.62,-228.33 -174.12,-488.95 -1029.53,-456.86 -1086.25,138.73 -9.35,98.15 9.21,58 -29.87,126.53 -18.25,32.01 -43.8,78.71 -43.8,126.83zm1578.32 -1137.53l569.5 -994.6c30.52,-53.01 60.17,-104.79 94.32,-161.63 47.23,-78.64 67.78,-151.93 118.23,-151.93l1421.92 0c50.52,0 163.08,230.01 207.23,304.66l565.62 984.66c12.52,49.07 -29.95,82.31 -75.41,161.74l-467.11 812.61c-34.15,56.95 -176.91,292.2 -187.68,338.43l-1507.22 0 -363.49 -646.07c-67.71,-111.8 -121.92,-213.49 -188.47,-323.42 -64.94,-107.25 -120.38,-224.3 -187.44,-324.45zm-2445.69 -1421.91l651.35 -1126.04c24.82,-41.3 77.88,-124.25 88.04,-167.9l1507.23 0 514.7 892.99c19.21,33.47 23.41,51.63 44.04,83.93l142.72 241.21c9.64,17.98 10.3,20.61 20.69,36.18 10.77,16.14 21.11,27.71 31.47,39.63 -121.85,181.96 -558.31,965.74 -713.26,1234.76 -20.09,34.89 -26.96,73.4 -68.79,73.4l-1436.14 0c-47.95,0 -80.84,-81.31 -113.75,-142.19 -203.76,-376.98 -465.04,-781.83 -668.3,-1165.97zm3938.7 -895.81c198.56,0 161.74,-106.65 267.23,-41.27 313.38,194.25 595.37,159.56 646.54,492.59 5.81,37.81 3.44,39.04 -21.75,84.22 -18.96,33.99 -28.34,46.65 -48.6,80.37 -25.92,43.1 -78.15,122.47 -89.81,166.14l-1507.22 0c-58.13,-217.68 -270.26,-236.5 -94.29,-506.64 107.72,-165.39 252.38,-129.44 484.23,-269.38 244.38,-147.5 104.16,-6.03 363.67,-6.03zm398.14 -753.61c-20.25,86.89 -25.55,90.86 -82.05,145.47 -93.1,89.98 -34.23,161.97 -162.75,292.26 -179.25,181.72 -310.98,57.07 -400.26,-133.94 -36.36,-77.79 -18.34,-107.8 -80.27,-161.45 -56.47,-48.9 -70.94,-66 -70.94,-170.77 189.88,-50.71 -122.33,-497.67 412.35,-497.67 395.85,0 292.68,376.09 303.65,420.38 16.98,68.61 50.2,64.69 80.27,105.72zm-1023.78 -56.88c0,297.66 65.39,214.71 170.79,454.85 20.18,45.98 52.37,76 56.72,128.14 -31.62,7.36 -245.42,115.77 -389.68,164.87 -111.52,37.96 -252.19,162.48 -278.63,275.92 -8.62,-9.91 -4.89,-3.5 -19.56,-23.09 -14.15,-18.88 -13.07,-17.49 -22.75,-34.13l-326.59 -569.22c-93.73,-153.53 -68.88,-73.14 98.74,-383.11l290.44 -505.85c52.79,-89.23 95.57,-161.97 145.97,-252.15 25.04,-44.81 46.79,-83.14 72.75,-126.32 27.46,-45.69 45.84,-83.45 73.83,-125.25l1507.22 0 645.86 1131.53c23.24,39.53 58.77,87.36 76.34,124.43 27.77,58.57 -2.56,78.34 -33.53,129.36l-218.62 378.67c-51.57,85.52 -95.79,165.9 -143.01,255.13 -68.15,-49.93 -81.22,-185.36 -296.15,-272.62 -64.48,-26.18 -135.32,-48.3 -205.68,-78.69 -64.55,-27.88 -130.88,-74.57 -194.9,-89.48l131.12 -252.79c84.91,-100.27 160.89,-287.79 73.45,-421.01 -81.97,-124.87 15.48,-162.92 -110.67,-372.79 -187.91,-312.62 -737.47,-311.97 -947.48,-20.27 -131.07,182.04 -54,286.58 -102.5,366.72 -22.15,36.61 -53.48,55.22 -53.48,117.15zm-1066.44 184.85l-1493.39 -0.38c-176.66,-1.65 -134.7,5.35 -274.26,237.62l-545.67 947.34c-197.54,355.02 -231.04,292.72 -86.88,533.11l300.65 524.05c67.71,123.95 135.86,227.07 203.53,351.02l203.95 350.6c-7.65,8.8 -15.72,17.21 -25.67,31.21 -16.74,23.57 -11.55,16.75 -26.49,44.61 -21.85,40.75 -30.47,52.34 -51.76,90.42 -34.69,62.08 -61.98,113.36 -97.74,172.43 -71.5,118.11 -133.65,228.99 -204.69,349.85 -35.99,61.21 -389.92,648.16 -389.92,704.95 0,113.93 244.32,481.65 324.45,614.02 41.1,67.9 72.6,130.99 113.61,199.21l329.03 566.77c36.55,63.6 62.62,155.67 157.15,155.67l1649.42 0c63.45,0 103.42,-97.28 128.71,-141.45 58.42,-102.02 711.66,-1211.4 724.44,-1266.24l1493.39 0.38c118.63,1.11 133.95,4.82 180.58,-75.36 78.49,-134.95 814.37,-1372.28 814.37,-1446.47 0,-92.17 -139.04,-288.12 -185.58,-368.96l-610.69 -1052.95c7.65,-8.8 15.72,-17.21 25.67,-31.21l78.25 -135.03c77.04,-137.83 692.35,-1160.54 692.35,-1227.23 0,-96.84 -140.03,-302.93 -214.1,-425.76l-550.9 -956.33c-38.07,-63.61 -68.48,-153.58 -159.24,-153.58l-1635.2 0c-96.61,0 -160.97,174.24 -247.78,320.99l-416.14 721.39c-38.06,68.08 -191.65,314.66 -203.45,365.31z"/>
 </g>
</svg>
