<?xml version="1.0" encoding="UTF-8"?>
<!DOCTYPE svg PUBLIC "-//W3C//DTD SVG 1.1//EN" "http://www.w3.org/Graphics/SVG/1.1/DTD/svg11.dtd">
<!-- Creator: CorelDRAW 2020 (64 Bit) -->
<svg xmlns="http://www.w3.org/2000/svg" xml:space="preserve" width="105.833mm" height="105.833mm" version="1.1" style="shape-rendering:geometricPrecision; text-rendering:geometricPrecision; image-rendering:optimizeQuality; fill-rule:evenodd; clip-rule:evenodd"
viewBox="0 0 10583.32 10583.32"
 xmlns:xlink="http://www.w3.org/1999/xlink"
 xmlns:xodm="http://www.corel.com/coreldraw/odm/2003">
 <defs>
  <style type="text/css">
   <![CDATA[
    .fil0 {fill:#373435}
   ]]>
  </style>
 </defs>
 <g id="Camada_x0020_1">
  <metadata id="CorelCorpID_0Corel-Layer"/>
  <path class="fil0" d="M8292.64 5426.65c-98.48,350.55 -536.88,524.67 -884.98,727.8 -331.81,193.64 -679.19,384.65 -1015.48,584.62 -336.94,200.36 -673.55,391.84 -1015.77,584.72l-2027.36 1172.11c-169.44,94.52 -352.17,209.88 -589.03,176.55 -219.87,-30.93 -370.83,-191.15 -432.47,-380.85 -94.58,-291.09 -45.37,-3954.77 -45.37,-4766.5 0,-412.39 -82.15,-1158.69 157.73,-1430.51 346.82,-392.98 773.55,-83.02 1106.34,107.18 346.36,197.96 673.31,390.2 1013.33,586.16l3043.58 1756.36c296.68,176.39 825.99,396.44 689.48,882.36z"/>
 </g>
</svg>
