<?xml version="1.0" encoding="UTF-8"?>
<!DOCTYPE svg PUBLIC "-//W3C//DTD SVG 1.1//EN" "http://www.w3.org/Graphics/SVG/1.1/DTD/svg11.dtd">
<!-- Creator: CorelDRAW 2020 (64 Bit) -->
<svg xmlns="http://www.w3.org/2000/svg" xml:space="preserve" width="105.833mm" height="105.833mm" version="1.1" style="shape-rendering:geometricPrecision; text-rendering:geometricPrecision; image-rendering:optimizeQuality; fill-rule:evenodd; clip-rule:evenodd"
viewBox="0 0 10583.32 10583.32"
 xmlns:xlink="http://www.w3.org/1999/xlink"
 xmlns:xodm="http://www.corel.com/coreldraw/odm/2003">
 <defs>
  <style type="text/css">
   <![CDATA[
    .fil0 {fill:#373435}
   ]]>
  </style>
 </defs>
 <g id="Camada_x0020_1">
  <metadata id="CorelCorpID_0Corel-Layer"/>
  <g id="_2961939372608">
   <path class="fil0" d="M8105.55 5030.57l0 -1189.38c0,-69.65 15.3,-141.63 47.12,-184.95 114.98,-156.59 345.73,-93.09 393.25,49.18 27.15,81.31 9.42,923.81 9.26,1049.57 -0.15,132.93 15.26,208.45 14.61,333.51l-0.09 1058.93c0,306.81 -157.64,396.97 -337.24,576.56l-1260.63 1263.17c-110.61,134.64 -70.16,299.41 -70.16,582.54l-1392.45 0 0 -1610.01c0,-352.94 180.48,-492.34 358.99,-670.84 328.96,-328.97 195.88,-242.95 757.87,-242.95 159.12,0 260.95,-108.59 344.48,-192.19l540.13 -533.25c128.05,-79.48 319.27,-34.8 319.27,188.77 0,109.61 -377.48,442.75 -467.77,533.04 -88.16,88.16 -165.68,165.68 -253.83,253.83 -108.06,108.06 -206.69,153.72 -206.69,329.98 0,117.92 105.75,188.57 246.57,188.57 97.07,0 247.03,-181.76 337.24,-271.97l609.4 -608.98c214.93,-213.13 243.63,-567.23 74.94,-807.85 -24.59,-35.08 -64.27,-62.28 -64.27,-95.28zm-5801.85 449.65c0,347.4 241.7,510.03 482.28,750.61l456.89 456.9c109.57,109.77 108.21,126.92 250.21,126.92 89.14,0 188.56,-86.49 188.56,-217.58 0,-138.38 -124.06,-218.33 -199.44,-293.71l-507.67 -507.67c-121.91,-121.91 -221.19,-170.07 -221.19,-329.98 0,-66.88 58.08,-136.42 101.69,-159.59 182.09,-96.75 338.36,128.25 482.12,272.01 157.88,157.87 414.03,467.77 605.57,467.77 560.4,0 437.41,-92.01 765.12,235.7 179.87,179.87 366.24,322.45 366.24,678.09l0 1610.01 -1392.44 0c0,-517.48 53.25,-461.68 -177.69,-692.59l-688.96 -688.97c-155.85,-155.85 -301.06,-301.06 -456.9,-456.9 -152.06,-152.06 -344.49,-272.42 -344.49,-569.31l-0.04 -1044.37c-0.49,-132.36 14.72,-210.78 14.56,-348.06 -0.13,-103.57 -9.72,-993.42 5.84,-1053 51.85,-198.66 443.79,-244.05 443.79,124.69l0 1189.38c0,46.76 -174.05,159.16 -174.05,449.65zm-725.23 -1697.04l0 2465.78c0,268.79 131.13,433.12 273.43,611.36l1340.66 1342.69c75.25,71.64 54.2,69.62 53.95,236.14 -0.15,93.78 -14.59,210.7 8.34,296.25 35.41,132.12 168.79,269.44 325.25,269.44l1595.51 0c63.22,0 79.44,-22.03 116.04,-22.03 36.6,0 52.82,22.03 116.04,22.03l1595.51 0c156.46,0 289.84,-137.32 325.25,-269.44 26.36,-98.36 0.8,-308.33 7.25,-427.88 3.84,-71.23 13.95,-65.39 55.04,-104.51 213.21,-203.01 1353.31,-1325.67 1468.37,-1505.09 64.89,-101.18 145.73,-286.23 145.73,-448.96l0 -2465.78c0,-370.04 -321.95,-667.22 -667.22,-667.22 -353.59,0 -667.21,297.96 -667.21,652.71l0 1073.35c-160.95,0 -277.95,16.31 -408.49,113.67 -80.18,59.8 -620.31,588.55 -664.85,655.07 -84.35,-19.65 -377.09,-32.06 -454.28,-19.15 -328.42,54.97 -481.38,281.72 -724.24,523.17l-126.9 134.18c-30.34,-20.31 -33.2,-31.2 -56.07,-59.96l-442.96 -441.82c-93.05,-73.01 -200.96,-129.76 -339.69,-153.47 -87.71,-14.99 -374.73,-4.38 -466.7,17.05 -43,-64.22 -583.34,-596.33 -656.53,-648.88 -145.82,-104.69 -241.89,-119.86 -416.81,-119.86l0 -1073.35c0,-95.63 -27.61,-196.72 -57.83,-261.28 -100.97,-215.75 -353.79,-391.43 -594.88,-391.43 -369.49,0 -681.71,301.04 -681.71,667.22z"/>
   <path class="fil0" d="M4813 3333.54l957.31 0c209.9,0 394.11,162.06 455.04,371.71 35.41,121.86 140.35,599.12 168.65,658.11l-2204.7 0c26.95,-56.16 66.61,-252.08 84.1,-322.02 28.81,-115.21 51.26,-221.52 84.55,-336.09 60.87,-209.44 244.34,-371.71 455.05,-371.71zm407.18 -1755.07l165.86 0c103.14,9.94 204.22,38.6 297.69,86.57 40.65,20.86 85.01,49.51 124.08,78.99l104.28 84.28c19.94,19.94 28.12,35.31 44.93,56.6 201.32,255.08 272.3,581.77 155.72,877.26 -26.71,67.7 -65.02,109.65 -81.35,179.74 213.01,17.72 492.85,304.38 588.84,542.52 49.3,122.3 86.65,317.5 118.96,446.71 25.21,100.82 104.46,380.72 104.46,461.23 0,224.08 -190.87,406.13 -362.62,406.13l-2378.76 0c-176.21,0 -362.61,-199.81 -362.61,-377.12 0,-121.33 21.27,-157.55 49.33,-269.77 20.16,-80.68 35.42,-141.66 55.12,-220.47 32.31,-129.21 69.66,-324.41 118.96,-446.71 95.99,-238.14 375.83,-524.8 588.85,-542.52 -48.56,-208.4 -130.55,-89.48 -130.55,-580.19 0,-216.47 153.92,-454.84 314.5,-584.79 142.19,-115.07 312.06,-182.1 484.31,-198.46zm-363.67 884.79c0,-403.69 475.44,-586.61 740.7,-320.07 413.21,415.23 -220.73,1008.14 -614.44,614.44 -59.69,-59.71 -126.26,-181.69 -126.26,-294.37z"/>
  </g>
 </g>
</svg>
