<?xml version="1.0" encoding="UTF-8"?>
<!DOCTYPE svg PUBLIC "-//W3C//DTD SVG 1.1//EN" "http://www.w3.org/Graphics/SVG/1.1/DTD/svg11.dtd">
<!-- Creator: CorelDRAW 2020 (64 Bit) -->
<svg xmlns="http://www.w3.org/2000/svg" xml:space="preserve" width="105.833mm" height="105.833mm" version="1.1" style="shape-rendering:geometricPrecision; text-rendering:geometricPrecision; image-rendering:optimizeQuality; fill-rule:evenodd; clip-rule:evenodd"
viewBox="0 0 10583.32 10583.32"
 xmlns:xlink="http://www.w3.org/1999/xlink"
 xmlns:xodm="http://www.corel.com/coreldraw/odm/2003">
 <defs>
  <style type="text/css">
   <![CDATA[
    .fil0 {fill:#373435}
   ]]>
  </style>
 </defs>
 <g id="Camada_x0020_1">
  <metadata id="CorelCorpID_0Corel-Layer"/>
  <g id="_2961946129312">
   <path class="fil0" d="M1629.49 5291.74c116.39,-173.82 712.8,-782.92 887.31,-918.46 243.4,-189.06 313.75,-270.05 614.56,-482.4 1074.62,-758.59 2143.71,-1012.17 3385.06,-515.84 163.73,65.46 345.07,149.98 489.51,236.18 158.2,94.41 302.8,178.27 445.85,279.84 311.76,221.38 703.62,545.82 983.18,822.59l518.87 578.09c-47.3,70.62 -108.72,125.15 -163.77,190.63 -103.42,122.99 -437.15,481.24 -537.92,559.05 -73.27,56.58 -107.71,108.26 -185.62,168.78 -217.12,168.65 -325.24,291.75 -614.68,482.28 -34.97,23.01 -63.97,45.74 -98.75,70.01 -37.77,26.35 -71.44,44.04 -113.8,71.85 -566.92,372.19 -1261.56,634.45 -1981.38,634.45 -457.28,0 -857.33,-126.94 -1191.01,-260.36 -610.05,-243.91 -1277.45,-719.99 -1732.49,-1170.24l-704.92 -746.45zm-658.18 -33.76c0,167.65 36.14,186.67 154.07,335.35l294.47 346.83c41.86,54.13 57.53,68.91 104.15,115.25 71.98,71.56 154.07,144.43 218.32,220.47 164.64,194.87 712.26,652.27 923.4,797.97 87.2,60.17 164.33,117.71 246.26,175.66 157.88,111.69 654.23,380.81 838.99,460.49 1181.72,509.61 2231.79,425.82 3363.33,-139.95 353.78,-176.89 737.04,-427.66 1042.43,-678.97l894.14 -827.24c130.97,-130.54 561.14,-604.03 561.14,-738.35 0,-167.65 -36.14,-186.67 -154.07,-335.34l-719.35 -782.66c-119.33,-109.11 -200.56,-208.35 -341.68,-316.49 -149.04,-114.2 -268.18,-235.67 -479.32,-381.38 -302.12,-208.5 -447.58,-318.34 -792.03,-490.57 -1137.62,-568.8 -2184.28,-658.89 -3374.59,-145.57 -97.8,42.17 -190.38,94.16 -281.96,139.95 -105.71,52.85 -184.03,92.22 -283.62,155.17 -89.14,56.33 -175.69,98.61 -263.51,158.39l-619.99 460.1c-45.5,36.84 -67.92,67.48 -115.48,103.91 -138.63,106.23 -257.12,240.94 -388.03,354.53l-475.17 503.65c-65.54,81.61 -124.71,147.24 -190.49,231.43 -49.59,63.47 -161.41,182.95 -161.41,277.37z"/>
   <path class="fil0" d="M4160.94 5325.49c0,-682.17 482.3,-1164.47 1164.47,-1164.47 596.16,0 1096.96,493.16 1096.96,1164.47 0,596.16 -493.15,1096.96 -1164.46,1096.96 -585.24,0 -1096.97,-511.72 -1096.97,-1096.96zm1096.97 -1738.27c-58,13.97 -341.76,-23.21 -703.43,157.27 -362.95,181.12 -691.66,499.61 -842.3,879.09 -177.33,446.7 -179.63,980.79 32.23,1405.34 142.34,285.24 334.97,511.02 595.08,687.52 252.45,171.31 692.66,323.18 992.51,287.5 159.49,-18.97 230.19,-15.8 371.57,-51.44 339.82,-85.67 580.51,-231.79 824.53,-474.95 402.07,-400.65 566.69,-1032.95 424.32,-1597.72 -107.33,-425.77 -351.15,-770.25 -708.59,-1012.8 -253.05,-171.71 -759.25,-334.4 -985.92,-279.81z"/>
  </g>
 </g>
</svg>
